<svg xmlns="http://www.w3.org/2000/svg" aria-hidden="true" style="position:absolute;width:0;height:0;overflow:hidden"><defs><symbol id="icon-apple" viewBox="0 0 26 32"><path fill="#b2b2b2" d="M22.008 17.346a7.134 7.134 0 0 1 3.369-5.937 7.332 7.332 0 0 0-5.707-3.085c-2.401-.252-4.729 1.437-5.952 1.437-1.247 0-3.131-1.412-5.159-1.37a7.661 7.661 0 0 0-6.395 3.9c-2.765 4.787-.703 11.823 1.946 15.693 1.325 1.895 2.874 4.012 4.901 3.937 1.983-.082 2.724-1.265 5.118-1.265 2.372 0 3.067 1.265 5.134 1.217 2.128-.035 3.469-1.903 4.748-3.816a15.663 15.663 0 0 0 2.171-4.422c-2.501-1.058-4.171-3.575-4.174-6.29zM18.102 5.779A6.97 6.97 0 0 0 19.696.788a7.084 7.084 0 0 0-4.586 2.373 6.69 6.69 0 0 0-1.635 4.806 5.931 5.931 0 0 0 4.628-2.188z" style="fill:var(--color1, #b2b2b2)"/></symbol><symbol id="icon-butterfly-2" viewBox="0 0 32 32"><path fill="#ff6428" d="M16.171 16.83C15.732 25.219 8.676 31.902 0 32V0c8.676.098 15.732 6.781 16.171 15.17C16.604 6.891 23.481.274 32 .007v31.985c-8.519-.267-15.396-6.884-15.829-15.163z" style="fill:var(--color2, #ff6428)"/></symbol><symbol id="icon-butterfly" viewBox="0 0 32 32"><path fill="#ff6428" d="M16.171 16.83C15.732 25.219 8.676 31.902 0 32V0c8.676.098 15.732 6.781 16.171 15.17C16.604 6.891 23.481.274 32 .007v31.985c-8.519-.267-15.396-6.884-15.829-15.163z" style="fill:var(--color2, #ff6428)"/></symbol><symbol id="icon-square" viewBox="0 0 32 32"><path fill="#a4a4a4" d="M19.157 2.09c.982-.982 2.368-1.379 3.954-1.379h2.844c1.587 0 2.972.397 3.954 1.379s1.379 2.368 1.379 3.954v2.844c0 1.587-.397 2.973-1.379 3.954s-2.368 1.379-3.954 1.379h-2.844c-1.587 0-2.973-.397-3.954-1.379s-1.379-2.368-1.379-3.954V6.044c0-1.587.397-2.973 1.379-3.954zm1.509 1.509c-.441.441-.754 1.188-.754 2.446v2.844c0 1.258.314 2.005.754 2.446s1.188.754 2.446.754h2.844c1.258 0 2.005-.314 2.446-.754s.754-1.188.754-2.446V6.045c0-1.258-.314-2.005-.754-2.446s-1.188-.754-2.446-.754h-2.844c-1.258 0-2.005.314-2.446.754zM2.091 19.157c.982-.982 2.368-1.379 3.954-1.379h2.844c1.587 0 2.973.397 3.954 1.379s1.379 2.368 1.379 3.954v2.844c0 1.587-.397 2.973-1.379 3.954s-2.368 1.379-3.954 1.379H6.045c-1.587 0-2.973-.397-3.954-1.379S.712 27.541.712 25.955v-2.844c0-1.587.397-2.972 1.379-3.954zm1.508 1.508c-.441.441-.754 1.188-.754 2.446v2.844c0 1.258.314 2.005.754 2.446s1.188.754 2.446.754h2.844c1.258 0 2.005-.314 2.446-.754s.754-1.188.754-2.446v-2.844c0-1.258-.314-2.005-.754-2.446s-1.188-.754-2.446-.754H6.045c-1.258 0-2.005.314-2.446.754zM7.467 2.844a4.622 4.622 0 1 0 0 9.243 4.622 4.622 0 0 0 0-9.243zM.711 7.467a6.756 6.756 0 1 1 13.513 0 6.756 6.756 0 0 1-13.513 0zM24.534 19.911a4.622 4.622 0 1 0 0 9.243 4.622 4.622 0 0 0 0-9.243zm-6.756 4.622a6.756 6.756 0 1 1 13.513 0 6.756 6.756 0 0 1-13.513 0z" style="fill:var(--color3, #a4a4a4)"/></symbol><symbol id="icon-close" viewBox="0 0 32 32"><path d="M23.733 10.304 22.229 8.8l-5.963 5.963L10.303 8.8l-1.504 1.504 5.963 5.963-5.963 5.963 1.504 1.504 5.963-5.963 5.963 5.963 1.504-1.504-5.963-5.963 5.963-5.963z"/></symbol><symbol id="icon-wallet" viewBox="0 0 32 32"><path fill="#a4a4a4" d="M8.346 11.333a4.024 4.024 0 0 0-4.013 4.013v4.101a6.331 6.331 0 0 1 8.666 5.885 6.243 6.243 0 0 1-.764 3h11.418a4.024 4.024 0 0 0 4.013-4.013v-.587h-1.533c-1.879 0-3.704-1.374-3.876-3.404a3.677 3.677 0 0 1 1.088-2.969 3.655 3.655 0 0 1 2.628-1.093h1.693v-.92a4.024 4.024 0 0 0-4.013-4.013H8.346zm-6.013 4.014a6.024 6.024 0 0 1 6.013-6.013h15.307a6.024 6.024 0 0 1 6.013 6.013v1.92a1 1 0 0 1-1 1h-2.693c-.479 0-.9.186-1.204.498l-.018.018a1.676 1.676 0 0 0-.503 1.363l.001.012c.07.847.885 1.576 1.883 1.576h2.533a1 1 0 0 1 1 1v1.587a6.024 6.024 0 0 1-6.013 6.013h-13.48a1.001 1.001 0 0 1-.643-1.766c.324-.272.61-.609.832-.991l.013-.021a4.228 4.228 0 0 0 .624-2.222 4.332 4.332 0 0 0-7.043-3.378 1 1 0 0 1-1.623-.782v-5.827z" style="fill:var(--color3, #a4a4a4)"/><path fill="#a4a4a4" d="M18.8 5.267a1.533 1.533 0 0 0-2.072-1.438l-10.587 4a2.797 2.797 0 0 0-1.807 2.625v6.093a1 1 0 0 1-2 0v-6.093c0-2 1.229-3.787 3.099-4.495l10.586-4c2.311-.876 4.781.838 4.781 3.308v5.067a1 1 0 0 1-2 0V5.267zM25.971 18.267c-.479 0-.9.186-1.203.498l-.018.018a1.676 1.676 0 0 0-.503 1.363l.001.012c.07.847.885 1.576 1.883 1.576h2.59a.368.368 0 0 0 .356-.36v-2.747a.369.369 0 0 0-.356-.36h-2.75zm-2.627-.907a3.655 3.655 0 0 1 2.628-1.093h2.773l.036.001c1.271.045 2.298 1.074 2.298 2.359v2.747c0 1.286-1.027 2.314-2.298 2.359l-.036.001h-2.613c-1.879 0-3.704-1.374-3.876-3.404a3.677 3.677 0 0 1 1.088-2.969z" style="fill:var(--color3, #a4a4a4)"/><path fill="#a4a4a4" d="M8.333 16a1 1 0 0 1 1-1h9.333a1 1 0 0 1 0 2H9.333a1 1 0 0 1-1-1zM6.666 21a4.34 4.34 0 0 0-2.71.955l-.002.001a4.292 4.292 0 0 0-1.622 3.377c0 .813.227 1.578.625 2.222l.008.014a4.292 4.292 0 0 0 3.701 2.098c1.097 0 2.086-.4 2.838-1.077l.026-.023c.324-.272.61-.609.832-.991l.013-.021a4.228 4.228 0 0 0 .624-2.222A4.332 4.332 0 0 0 6.666 21zm-3.955-.609A6.331 6.331 0 0 1 13 25.333c0 1.183-.33 2.307-.916 3.261a5.782 5.782 0 0 1-1.255 1.494 6.207 6.207 0 0 1-4.163 1.578 6.292 6.292 0 0 1-5.415-3.069 6.226 6.226 0 0 1-.918-3.265c0-1.992.918-3.784 2.378-4.943z" style="fill:var(--color3, #a4a4a4)"/><path fill="#a4a4a4" d="M9.482 23.347a1 1 0 0 1-.055 1.413l-2.84 2.627a1 1 0 0 1-1.386-.027l-1.32-1.32a.999.999 0 1 1 1.414-1.414l.64.64 2.134-1.974a1 1 0 0 1 1.413.055z" style="fill:var(--color3, #a4a4a4)"/></symbol><symbol id="icon-facebook" viewBox="0 0 30 32"><path d="M16.064 26.021v-9.495h3.074l.46-3.701h-3.535v-2.363c0-1.071.287-1.802 1.769-1.802l1.89-.001v-3.31c-.327-.045-1.449-.146-2.754-.146-2.725 0-4.591 1.724-4.591 4.891v2.729H9.295v3.701h3.082v9.495h3.686z"/></symbol><symbol id="icon-group-2" viewBox="0 0 32 32"><path fill="#a4a4a4" d="M2.473 4.913A6.327 6.327 0 0 1 8 1.667h12a1 1 0 0 1 1 1V16a3.675 3.675 0 0 1-3.667 3.667H16a1 1 0 0 1 0-2h1.333c.914 0 1.667-.752 1.667-1.667V3.667H8a4.33 4.33 0 0 0-3.78 2.22 1.001 1.001 0 0 1-1.747-.973z" style="fill:var(--color3, #a4a4a4)"/><path fill="#a4a4a4" d="M19 6.667a1 1 0 0 1 1-1h2.453c1.325 0 2.53.717 3.185 1.845l.003.006 2.28 3.987a1 1 0 0 1-.868 1.496h-1.72a.337.337 0 0 0-.333.333v4c0 .181.152.333.333.333h4a1 1 0 0 1 1 1v4c0 2.766-2.234 5-5 5H24a1 1 0 0 1-1-1c0-.914-.752-1.667-1.667-1.667s-1.667.752-1.667 1.667a1 1 0 0 1-1 1h-5.333a1 1 0 0 1-1-1c0-.914-.752-1.667-1.667-1.667s-1.667.752-1.667 1.667a1 1 0 0 1-1 1H6.666c-2.766 0-5-2.234-5-5a1 1 0 0 1 2 0c0 1.661 1.339 3 3 3h.472C7.575 24.131 8.993 23 10.666 23s3.09 1.131 3.528 2.667h3.612C18.243 24.131 19.661 23 21.334 23s3.09 1.131 3.527 2.667h.473c1.661 0 3-1.339 3-3v-3h-3a2.337 2.337 0 0 1-2.333-2.333v-4a2.337 2.337 0 0 1 2.329-2.333l-1.421-2.485a1.688 1.688 0 0 0-1.456-.848H21v8.333a3.675 3.675 0 0 1-3.667 3.667H16a1 1 0 0 1 0-2h1.333c.914 0 1.667-.752 1.667-1.667V6.668z" style="fill:var(--color3, #a4a4a4)"/><path fill="#a4a4a4" d="M10.667 25a1.667 1.667 0 1 0 0 3.333 1.667 1.667 0 0 0 0-3.333zM7 26.667a3.667 3.667 0 1 1 7.335 0 3.667 3.667 0 0 1-7.335 0zM21.334 25a1.667 1.667 0 1 0 0 3.333 1.667 1.667 0 0 0 0-3.333zm-3.667 1.667a3.667 3.667 0 1 1 7.335 0 3.667 3.667 0 0 1-7.335 0zM25.333 13a.337.337 0 0 0-.333.333v4c0 .181.152.333.333.333h3v-1.402l-1.861-3.265h-1.139zM23 13.333A2.337 2.337 0 0 1 25.333 11h1.72c.359 0 .691.193.869.505l2.28 4c.086.151.131.322.131.495v2.667a1 1 0 0 1-1 1h-4A2.337 2.337 0 0 1 23 17.334v-4zM1.667 10.667a1 1 0 0 1 1-1h8a1 1 0 0 1 0 2h-8a1 1 0 0 1-1-1zM1.667 14.667a1 1 0 0 1 1-1H8a1 1 0 0 1 0 2H2.667a1 1 0 0 1-1-1zM1.667 18.667a1 1 0 0 1 1-1h2.667a1 1 0 0 1 0 2H2.667a1 1 0 0 1-1-1z" style="fill:var(--color3, #a4a4a4)"/></symbol><symbol id="icon-group" viewBox="0 0 32 32"><path fill="#fff" d="M32 16c0 8.837-7.163 16-16 16S0 24.837 0 16 7.163 0 16 0s16 7.163 16 16z" style="fill:var(--color4, #fff)"/><path fill="#ff6428" d="M16.051 16.249c-.132 2.517-2.248 4.522-4.851 4.551v-9.6c2.603.029 4.72 2.034 4.851 4.551.13-2.484 2.193-4.469 4.749-4.549v9.596c-2.556-.08-4.619-2.065-4.749-4.549z" style="fill:var(--color2, #ff6428)"/></symbol><symbol id="icon-google" viewBox="0 0 29 32"><path fill="#b2b2b2" d="m.628 31.366 14.826-15.377L.64.639c-.396.239-.641.792-.641 1.517v27.709c.005.724.241 1.237.628 1.502zM15.985 15.564l4.416-4.581L2.417.755A1.936 1.936 0 0 0 1.42.476l14.565 15.089zM15.986 16.416 1.376 31.569c.367.006.728-.093 1.043-.287l18.02-10.256-4.453-4.611zM26.917 14.695l-5.985-3.41-4.537 4.706 4.571 4.736 5.949-3.401c1.265-.722 1.265-1.912.002-2.631z" style="fill:var(--color1, #b2b2b2)"/></symbol><symbol id="icon-Instagram" viewBox="0 0 30 32"><path d="M11.922 15.612c0-1.796 1.404-3.253 3.137-3.253s3.137 1.456 3.137 3.253c0 1.796-1.405 3.253-3.137 3.253s-3.137-1.457-3.137-3.253zm-1.696 0c0 2.767 2.164 5.01 4.833 5.01s4.833-2.243 4.833-5.01-2.164-5.01-4.833-5.01-4.833 2.243-4.833 5.01zm8.728-5.209c0 .232.066.458.19.651s.3.343.507.431c.206.089.433.112.653.067s.42-.157.578-.32c.158-.164.266-.372.309-.599s.021-.463-.064-.677c-.085-.214-.23-.397-.416-.526s-.404-.197-.627-.198c-.299 0-.587.123-.798.343s-.331.517-.331.827zm-7.697 13.152c-.918-.043-1.416-.202-1.748-.336-.439-.177-.753-.389-1.083-.73s-.534-.666-.704-1.122c-.129-.344-.282-.861-.324-1.812-.046-1.029-.055-1.337-.055-3.943s.01-2.914.055-3.943c.042-.951.196-1.467.324-1.812.171-.456.375-.781.704-1.122s.642-.553 1.083-.73c.331-.134.83-.292 1.748-.336.992-.047 1.29-.057 3.802-.057s2.811.01 3.803.057c.918.043 1.416.203 1.748.336.439.177.753.389 1.083.73s.533.667.704 1.122c.129.344.282.861.324 1.812.046 1.029.055 1.338.055 3.943s-.009 2.914-.055 3.943c-.042.951-.195 1.468-.324 1.812-.171.456-.375.781-.704 1.122s-.643.553-1.083.73c-.331.134-.83.292-1.748.336-.992.047-1.29.057-3.803.057s-2.811-.009-3.802-.057zm-.078-17.641c-1.002.047-1.687.212-2.285.453-.619.249-1.143.583-1.667 1.125s-.845 1.087-1.086 1.729c-.233.62-.392 1.33-.437 2.369-.046 1.04-.057 1.373-.057 4.023s.011 2.982.057 4.023c.046 1.039.205 1.748.437 2.368.24.642.562 1.187 1.086 1.728s1.048.876 1.667 1.125c.599.241 1.283.406 2.285.453 1.004.047 1.324.059 3.88.059s2.877-.011 3.88-.059c1.002-.047 1.686-.212 2.284-.453.619-.25 1.143-.583 1.667-1.125s.845-1.087 1.086-1.728c.233-.62.392-1.33.437-2.368.046-1.041.056-1.373.056-4.023s-.011-2.982-.056-4.023c-.046-1.039-.205-1.749-.437-2.369-.241-.642-.563-1.185-1.086-1.729s-1.048-.876-1.667-1.125c-.599-.241-1.283-.407-2.284-.453-1.004-.047-1.324-.059-3.88-.059s-2.877.011-3.881.059z"/></symbol><symbol id="icon-location" viewBox="0 0 32 32"><path fill="none" stroke="#666" stroke-width="2" d="M16 17.907a4.16 4.16 0 1 0 0-8.32 4.16 4.16 0 0 0 0 8.32z" style="stroke:var(--color5, #666)"/><path fill="none" stroke="#666" stroke-width="2" d="M4.827 11.32C7.454-.227 24.56-.213 27.174 11.333c1.533 6.773-2.68 12.507-6.373 16.053a6.924 6.924 0 0 1-9.613 0c-3.68-3.547-7.893-9.293-6.36-16.067z" style="stroke:var(--color5, #666)"/></symbol><symbol id="icon-menu" viewBox="0 0 32 32"><path d="M6.4 11.733V9.6h19.2v2.133H6.4zm0 5.334h19.2v-2.133H6.4v2.133zm0 5.333h19.2v-2.133H6.4V22.4z"/></symbol><symbol id="icon-orange" viewBox="0 0 64 32"><path fill="#ff6428" d="M0 16C0 7.163 7.163 0 16 0h32c8.837 0 16 7.163 16 16s-7.163 16-16 16H16C7.163 32 0 24.837 0 16z" style="fill:var(--color2, #ff6428)"/></symbol><symbol id="icon-grey" viewBox="0 0 20 32"><path fill="#c4c4c4" d="M10 0c5.523 0 10 4.477 10 10v12c0 5.523-4.477 10-10 10S0 27.523 0 22V10C0 4.477 4.477 0 10 0z" style="fill:var(--color6, #c4c4c4)"/></symbol><symbol id="icon-sms" viewBox="0 0 32 32"><path fill="none" stroke="#666" stroke-linecap="round" stroke-linejoin="round" stroke-miterlimit="10" stroke-width="2" d="M22.667 27.333H9.334c-4 0-6.667-2-6.667-6.667v-9.333c0-4.667 2.667-6.667 6.667-6.667h13.333c4 0 6.667 2 6.667 6.667v9.333c0 4.667-2.667 6.667-6.667 6.667z" style="stroke:var(--color5, #666)"/><path fill="none" stroke="#666" stroke-linecap="round" stroke-linejoin="round" stroke-miterlimit="10" stroke-width="2" d="m22.667 12-4.173 3.333c-1.373 1.093-3.627 1.093-5 0L9.334 12" style="stroke:var(--color5, #666)"/></symbol><symbol id="icon-twitter" viewBox="0 0 30 32"><path d="M22.439 12.238v.488c0 5.05-3.718 10.88-10.494 10.88-2.094 0-4.024-.634-5.671-1.708.282.024.588.049.871.049a7.3 7.3 0 0 0 4.588-1.634c-1.624-.024-2.988-1.147-3.435-2.659.235.049.447.073.706.073.329 0 .659-.049.965-.146-1.694-.341-2.965-1.878-2.965-3.732V13.8a3.521 3.521 0 0 0 1.671.488 3.87 3.87 0 0 1-1.647-3.196c0-.707.188-1.366.494-1.927 1.812 2.317 4.541 3.83 7.6 4.001a3.56 3.56 0 0 1-.094-.878c0-2.122 1.647-3.83 3.694-3.83a3.61 3.61 0 0 1 2.682 1.195 7.341 7.341 0 0 0 2.353-.927 3.917 3.917 0 0 1-1.624 2.122 6.892 6.892 0 0 0 2.118-.61 6.878 6.878 0 0 1-1.812 2z"/></symbol></defs></svg>